<?xml version="1.0" encoding="UTF-8"?>
<svg id="_レイヤー_1" data-name="レイヤー 1" xmlns="http://www.w3.org/2000/svg" viewBox="0 0 585.68 127.77">
  <defs>
    <style>
      .cls-1 {
        fill: #ce1b2f;
      }

      .cls-1, .cls-2, .cls-3 {
        stroke-width: 0px;
      }

      .cls-2 {
        fill: #a61e2f;
      }

      .cls-3 {
        fill: #fff;
      }
    </style>
  </defs>
  <polygon class="cls-3" points="191.34 69.3 153.23 69.3 153.23 34.1 129.9 34.1 129.9 124.47 153.23 124.47 153.23 87.09 191.34 87.09 191.34 124.47 214.68 124.47 214.68 34.1 191.34 34.1 191.34 69.3"/>
  <path class="cls-3" d="m412.77,87.09c12.79-1.97,20.62-12.21,20.62-25.44,0-17.5-11.37-27.54-31.19-27.54h-35.82v90.37h23.33v-35.28h1.3l22.51,35.28h27.93l-28.68-37.39Zm-23.06-35.96h3c7.4,0,17.23,1.24,17.23,11.98,0,3.28,0,11.98-17.23,11.98h-3v-23.96Z"/>
  <rect class="cls-3" x="278.86" y="34.1" width="23.33" height="90.37"/>
  <path class="cls-3" d="m24.8,85.76c-12.91-4.6-21.02-12.91-21.17-23.87,0-18,14.52-30.1,32.62-30.1,10.35,0,20.19,2.84,29.3,7.56l-9.28,17.15c-5.27-3.75-10.77-6.12-16.44-6.12-5.14,0-12.34,1.98-12.34,8.35s8.11,8.06,12.45,9.39l6.47,1.85c18.54,5.71,22.67,15.78,23.34,24.41.76,9.9-3.28,18.96-9.75,24.18-6.8,5.46-15.68,8.47-26.97,8.47s-23.17-4.07-33.04-10.42l10.05-17.93c6.72,5.53,14.35,9.52,22.1,9.52,6.42,0,13.75-2.09,13.75-9.93s-10.22-9.4-15.82-10.91c-1.88-.51-4.51-1.33-5.27-1.61Z"/>
  <circle class="cls-3" cx="532.96" cy="85.92" r="41.86"/>
  <circle class="cls-3" cx="534.07" cy="29.74" r="29.74"/>
  <rect id="_手四角" data-name="手四角" class="cls-3" x="560.59" y="54.96" width="25.39" height="7.09" transform="translate(72.35 343.36) rotate(-35.45)"/>
  <rect id="_手四角-2" data-name="手四角" class="cls-3" x="477.37" y="55.28" width="26.09" height="6.32" transform="translate(131.58 -280.92) rotate(36.61)"/>
  <g>
    <path class="cls-2" d="m543.52,60.29c-.01,4.53-1.31,9.05-3.72,13-.36.59-.76,1.24-.59,1.9.22.88,1.31,1.29,2.27,1.49,3.23.67,6.64.51,9.85-.27,2.1-.51,4.3-1.43,5.25-3.24.55-1.04.59-2.24.63-3.4.14-4.81.28-9.62.43-14.43.01-.35.02-.72-.11-1.05-.33-.84-1.4-1.21-2.36-1.33-2.74-.36-5.63.41-7.72,2.09-2.08,1.67-4.23,2.24-4.16,4.78l.25.47Z"/>
    <path class="cls-2" d="m542.05,60.38c-.03,2.94-.55,5.84-1.61,8.59-.5,1.3-1.12,2.55-1.82,3.76-.66,1.13-1.39,2.42-.47,3.63.65.87,1.83,1.2,2.84,1.43,1.52.33,3.1.44,4.66.44,2.82-.01,5.81-.46,8.42-1.56,2.32-.98,4.09-2.68,4.48-5.24.45-2.99.25-6.17.34-9.19.05-1.55.09-3.1.14-4.65.04-1.27.43-3.08-.33-4.21-1.34-1.99-4.79-1.78-6.83-1.43-2.89.51-4.98,2.13-7.34,3.74-1.72,1.18-3.46,3.11-2.32,5.26.65,1.22,3.39.09,2.64-1.31-.04-.07-.1-.16-.12-.23-.07-.25.03-.13.03,0,0-.35.09-.72.28-1.02.38-.62,1.12-1.03,1.71-1.43,1.61-1.09,3.01-2.3,4.96-2.74.91-.21,1.86-.27,2.78-.16.37.04.78.09,1.12.26.65.34.55.94.53,1.59-.07,2.4-.14,4.81-.21,7.21s-.1,4.89-.22,7.33c-.1,2.18-.89,3.55-2.95,4.38s-4.3,1.1-6.44,1.14c-1.07.02-6.2.12-5.52-1.75.41-1.14,1.28-2.2,1.79-3.32s.97-2.3,1.32-3.5c.69-2.35,1.07-4.76,1.1-7.21.02-1.58-2.93-1.21-2.95.18Z"/>
  </g>
  <path class="cls-1" d="m513.14,46.26c12.87,2.56,15.35,3.43,22.37,2.42,4.65-.67,9.32-1.25,14.01-1.64,4.59-.38,9.55-.34,13.37,2.24,1.03.7,1.99,1.64,2.28,2.85.38,1.59-.52,3.27-1.81,4.27-1.29,1.01-2.9,1.48-4.47,1.93-16.44,4.64-33.64,8.07-50.55,5.64-3.6-.52-8.25-1.73-10.61-4.49-1.67-1.96,6.61-4.03,6.61-6.61,0-6.61,4.41-6.61,8.81-6.61"/>
  <rect id="_手四角-3" data-name="手四角" class="cls-3" x="486.08" y="50.97" width="10.76" height="3.8" transform="translate(603.02 -428.68) rotate(96.9)"/>
</svg>