<?xml version="1.0" standalone="no"?>
<!DOCTYPE svg PUBLIC "-//W3C//DTD SVG 1.1//EN" "http://www.w3.org/Graphics/SVG/1.1/DTD/svg11.dtd" >
<svg xmlns="http://www.w3.org/2000/svg" xmlns:xlink="http://www.w3.org/1999/xlink" version="1.1">
<metadata></metadata>
<defs>
<font id="tt_commonsbold" horiz-adv-x="1085" >
<font-face units-per-em="2048" ascent="1434" descent="-614" />
<missing-glyph horiz-adv-x="471" />
<glyph unicode="&#xfb01;" horiz-adv-x="1126" d="M41 645v256h123v51q0 168 88 258t250 90q35 0 68 -5t49 -10l16 -5v-246q-31 10 -72 10q-55 0 -89 -36t-34 -97v-10h564v-901h-277v645h-287v-645h-276v645h-123zM717 1147q0 61 45.5 107t107.5 46t108 -46t46 -107t-46 -107.5t-108 -46.5q-61 0 -107 46t-46 108z" />
<glyph unicode="&#xfb02;" horiz-adv-x="1105" d="M41 645v256h133q0 196 102 308t267 112q50 0 96 -7.5t67 -15.5l21 -8h277v-1290h-277v1044q-41 21 -123 21q-69 0 -116.5 -47.5t-47.5 -116.5h195v-256h-195v-645h-276v645h-123z" />
<glyph unicode="&#xfb03;" horiz-adv-x="1689" d="M41 645v256h123q0 176 87.5 267.5t250.5 91.5q35 0 68 -5t49 -11l16 -5v-246q-31 11 -72 11q-29 0 -52 -10.5t-35.5 -26t-21 -30.5t-11.5 -25l-3 -11h287v51q0 168 88 258t250 90q35 0 68 -5t49 -10l16 -5v-246q-31 10 -72 10q-55 0 -88.5 -36t-33.5 -97v-10h563v-901 h-277v645h-286v-645h-277v645h-287v-645h-276v645h-123zM1280 1147q0 61 46 107t108 46t107.5 -46t45.5 -107q0 -62 -46 -108t-107 -46q-62 0 -108 46.5t-46 107.5z" />
<glyph unicode="&#xfb04;" horiz-adv-x="1669" d="M41 645v256h123q0 176 87.5 267.5t250.5 91.5q35 0 68 -5t49 -11l16 -5v-246q-31 11 -72 11q-29 0 -52 -10.5t-35.5 -26t-21 -30.5t-11.5 -25l-3 -11h297q0 196 102 308t267 112q50 0 96 -7.5t67 -15.5l21 -8h277v-1290h-277v1044q-41 21 -123 21q-69 0 -116 -47.5 t-47 -116.5h194v-256h-194v-645h-277v645h-287v-645h-276v645h-123z" />
<glyph horiz-adv-x="0" />
<glyph horiz-adv-x="0" />
<glyph horiz-adv-x="682" />
<glyph unicode="&#xd;" horiz-adv-x="0" />
<glyph unicode=" "  horiz-adv-x="471" />
<glyph unicode="&#x09;" horiz-adv-x="471" />
<glyph unicode="&#xa0;" horiz-adv-x="471" />
<glyph unicode="!" horiz-adv-x="573" d="M123 1290h328l-31 -901h-266zM133 143q0 61 46.5 107.5t107.5 46.5t107 -46t46 -108q0 -61 -46 -107t-107 -46q-62 0 -108 46t-46 107z" />
<glyph unicode="&#x22;" horiz-adv-x="870" d="M123 870v420h256v-420h-256zM492 870v420h256v-420h-256z" />
<glyph unicode="#" horiz-adv-x="1331" d="M20 307l52 225h235l41 226h-235l51 225h225l62 307h225l-62 -307h226l61 307h225l-61 -307h246l-51 -225h-236l-41 -226h236l-52 -225h-225l-61 -307h-226l62 307h-225l-62 -307h-225l61 307h-246zM532 532h226l41 226h-226z" />
<glyph unicode="$" horiz-adv-x="1075" d="M61 410l287 20q0 -174 184 -174q82 0 128.5 38t46.5 95q0 39 -35 66.5t-91 46t-123.5 37.5t-135.5 48t-124 69.5t-91 111t-35 164.5q0 131 92.5 229t245.5 129v174h266v-184q138 -31 222.5 -138.5t84.5 -250.5l-287 -21q0 76 -44 120t-120 44q-66 0 -109.5 -37.5 t-43.5 -85.5q0 -37 35 -63t91 -43t123.5 -35.5t135.5 -48t124 -71t91 -113.5t35 -168q0 -132 -93 -235.5t-245 -133.5v-174h-266v174q-165 30 -257 141.5t-92 268.5z" />
<glyph unicode="%" horiz-adv-x="1351" d="M61 1014q0 123 82 204.5t205 81.5t205 -81.5t82 -204.5t-82 -205t-205 -82t-205 82t-82 205zM164 0l788 1290h236l-789 -1290h-235zM236 1014q0 -46 33 -79.5t79 -33.5t79.5 33t33.5 80q0 46 -33.5 79t-79.5 33t-79 -33t-33 -79zM717 276q0 123 82 205t205 82t204.5 -82 t81.5 -205t-81.5 -204.5t-204.5 -81.5t-205 81.5t-82 204.5zM891 276q0 -46 33.5 -79t79.5 -33t79 33t33 79t-33 79.5t-79 33.5t-79.5 -33t-33.5 -80z" />
<glyph unicode="&#x26;" horiz-adv-x="1198" d="M61 307q0 66 24.5 127.5t59 101.5t69 71t58.5 45l25 14l-61 71q-20 23 -25.5 29.5t-25 35.5t-27.5 50t-16.5 57t-8.5 74q0 126 104 221.5t255 95.5q150 0 254 -95.5t104 -221.5q0 -145 -113 -235l-102 -82l164 -164l92 133h317l-225 -318l317 -317h-337l-134 133 q-5 -6 -15.5 -16.5t-46.5 -37t-76.5 -46.5t-105.5 -36.5t-134 -16.5q-180 0 -285 92.5t-105 234.5zM358 358q0 -47 35 -79.5t88 -32.5q41 0 79.5 20.5t56.5 41.5l18 20l-184 184l-10 -7.5t-22 -20t-28.5 -32.5t-22.5 -42.5t-10 -51.5zM389 963q0 -29 14 -57t30 -46.5 t48 -50.5q59 41 86 76t27 78q0 53 -27.5 82.5t-74.5 29.5t-75 -29.5t-28 -82.5z" />
<glyph unicode="'" horiz-adv-x="419" d="M82 870v420h256v-420h-256z" />
<glyph unicode="(" horiz-adv-x="645" d="M82 461q0 107 17 213.5t44 192t59.5 164t65.5 135.5t60 100t44 64l17 22l215 -144q-10 -13 -25.5 -37.5t-56 -104t-71.5 -162t-56.5 -204t-25.5 -239.5t24 -238.5t59 -208t69.5 -158.5t58.5 -107l24 -36l-215 -143q-12 15 -33 43t-74 120t-93.5 189.5t-73.5 245 t-33 293.5z" />
<glyph unicode=")" horiz-adv-x="645" d="M41 -287q10 13 25.5 37.5t56 103.5t71.5 161.5t56.5 205t25.5 240.5t-24 238t-59 207.5t-69.5 158.5t-58.5 107l-24 36l215 144q12 -15 33 -43t74 -120t93.5 -189.5t73.5 -245t33 -293.5q0 -107 -17 -213.5t-44 -192t-59.5 -164t-65.5 -135.5t-60 -100t-44 -64l-17 -22z " />
<glyph unicode="*" horiz-adv-x="737" d="M51 1004l51 163l185 -71l-11 204h185l-10 -204l184 71l51 -163l-194 -52l133 -164l-144 -102l-112 174l-113 -174l-143 102l133 164z" />
<glyph unicode="+" horiz-adv-x="952" d="M61 399v246h287v297h256v-297h287v-246h-287v-297h-256v297h-287z" />
<glyph unicode="," horiz-adv-x="430" d="M61 143q0 61 46.5 107.5t107.5 46.5q62 0 108 -48t46 -116q0 -52 -11.5 -100t-29.5 -83t-39.5 -65t-43.5 -50t-40 -34t-29 -20l-12 -6l-51 71l9 6t21 18t27.5 29.5t25.5 40t19 50.5q-62 0 -108 46t-46 107z" />
<glyph unicode="-" horiz-adv-x="768" d="M72 399v246h624v-246h-624z" />
<glyph unicode="." horiz-adv-x="430" d="M61 143q0 61 46.5 107.5t107.5 46.5t107.5 -46.5t46.5 -107.5t-46 -107t-108 -46t-108 46t-46 107z" />
<glyph unicode="/" horiz-adv-x="798" d="M0 -369l532 1659h267l-533 -1659h-266z" />
<glyph unicode="0" horiz-adv-x="1249" d="M72 645q0 150 43 274.5t118 207t176 128t216 45.5t216 -45.5t176 -128t118 -207t43 -274.5t-43 -274.5t-118 -207t-176 -128t-216 -45.5t-216 45.5t-176 128t-118 207t-43 274.5zM369 645q0 -175 74.5 -272t181.5 -97t181.5 97t74.5 272t-74.5 272t-181.5 97t-181.5 -97 t-74.5 -272z" />
<glyph unicode="1" horiz-adv-x="706" d="M10 1055l338 235h236v-1290h-297v922l-133 -93z" />
<glyph unicode="2" horiz-adv-x="1034" d="M61 891q0 180 123.5 294.5t327.5 114.5q211 0 331 -108t120 -281q0 -55 -21 -113t-51 -101.5t-60.5 -79.5t-51.5 -55l-21 -19l-246 -256h451v-287h-891v205l471 491q5 5 12.5 13t26.5 32.5t34 48t27 54.5t12 57q0 62 -37.5 97.5t-105.5 35.5q-76 0 -120 -44t-44 -120z " />
<glyph unicode="3" horiz-adv-x="1054" d="M41 369l297 20q8 -57 54.5 -95t119.5 -38q82 0 128 39.5t46 103.5q0 57 -48 95t-136 38h-123v246h123q81 0 122.5 34t41.5 89q0 56 -45 94.5t-119 38.5q-67 0 -106.5 -33.5t-47.5 -89.5l-297 21q8 153 134.5 260.5t326.5 107.5q100 0 186 -30t143.5 -80t89.5 -114.5 t32 -133.5q0 -52 -18 -98t-43.5 -75.5t-51.5 -51.5t-44 -31l-18 -10q8 -3 22 -10t49.5 -34t62.5 -60t49 -90.5t22 -123.5q0 -153 -128 -260.5t-343 -107.5t-344 109t-137 270z" />
<glyph unicode="4" horiz-adv-x="1075" d="M41 225v267l508 798h352v-778h133v-287h-133v-225h-297v225h-563zM348 512h256v410z" />
<glyph unicode="5" d="M72 358l297 21q1 -5 4 -13.5t16 -29.5t30.5 -37t50.5 -29.5t73 -13.5q77 0 130.5 54t53.5 130q0 77 -54 131t-130 54q-37 0 -68.5 -10.5t-50.5 -25.5t-32 -30.5t-18 -26.5l-5 -10h-267l82 768h748v-286h-500l-22 -175q8 6 23 14.5t60.5 23t90.5 14.5q184 0 312 -128 t128 -313q0 -194 -134 -322t-347 -128q-191 0 -319 107t-152 261z" />
<glyph unicode="6" d="M61 440q0 52 12.5 106.5t31 96t36.5 75.5t31 52l12 18l338 502h307l-276 -409q122 10 230.5 -44.5t174.5 -160t66 -236.5q0 -194 -134 -322t-347 -128t-347.5 128t-134.5 322zM358 440q0 -84 53.5 -139t131.5 -55q77 0 130.5 55t53.5 139t-53.5 139.5t-130.5 55.5 t-131 -55.5t-54 -139.5z" />
<glyph unicode="7" horiz-adv-x="983" d="M72 1004v286h860v-235l-492 -1055h-319l473 1004h-522z" />
<glyph unicode="8" d="M61 379q0 46 11.5 88.5t29.5 73t39.5 57.5t43.5 44.5t40 30t29 17.5l12 6q-6 3 -16.5 10t-37 31t-46.5 52.5t-36.5 75t-16.5 98.5q0 143 122 250.5t308 107.5t308 -107.5t122 -250.5q0 -52 -16 -98t-38.5 -75.5t-45 -52t-38.5 -31.5l-16 -10q8 -4 22 -11.5t49.5 -35.5 t62.5 -61t49 -89.5t22 -119.5q0 -160 -133 -274.5t-348 -114.5t-348.5 114.5t-133.5 274.5zM358 399q0 -70 51 -116.5t134 -46.5t133.5 46.5t50.5 116.5q0 71 -50.5 117.5t-133.5 46.5t-134 -47t-51 -117zM399 942q0 -55 41.5 -94t102.5 -39t102 39t41 94t-41 94t-102 39 t-102.5 -39t-41.5 -94z" />
<glyph unicode="9" d="M61 850q0 194 134.5 322t347.5 128t347 -128t134 -322q0 -82 -31 -169t-61 -133l-31 -46l-338 -502h-307l276 410q-91 -7 -177 23.5t-151 88.5t-104 144t-39 184zM358 850q0 -84 54 -139.5t131 -55.5t130.5 55.5t53.5 139.5t-53.5 139t-130.5 55q-78 0 -131.5 -55 t-53.5 -139z" />
<glyph unicode=":" horiz-adv-x="430" d="M61 143q0 61 46.5 107.5t107.5 46.5t107.5 -46.5t46.5 -107.5t-46 -107t-108 -46t-108 46t-46 107zM61 799q0 61 46 107t108 46t108 -46t46 -107t-46.5 -107.5t-107.5 -46.5t-107.5 46.5t-46.5 107.5z" />
<glyph unicode=";" horiz-adv-x="430" d="M61 143q0 61 46.5 107.5t107.5 46.5q62 0 108 -48t46 -116q0 -52 -11.5 -100t-29.5 -83t-39.5 -65t-43.5 -50t-40 -34t-29 -20l-12 -6l-51 71l9 6t21 18t27.5 29.5t25.5 40t19 50.5q-62 0 -108 46t-46 107zM61 799q0 61 46 107t108 46t108 -46t46 -107t-46.5 -107.5 t-107.5 -46.5t-107.5 46.5t-46.5 107.5z" />
<glyph unicode="&#x3c;" horiz-adv-x="942" d="M82 348v225l778 349v-256l-471 -205l471 -205v-256z" />
<glyph unicode="=" horiz-adv-x="942" d="M72 184v256h798v-256h-798zM72 604v256h798v-256h-798z" />
<glyph unicode="&#x3e;" horiz-adv-x="942" d="M82 0v256l471 205l-471 205v256l778 -349v-225z" />
<glyph unicode="?" horiz-adv-x="952" d="M31 881q15 193 130.5 306t299.5 113q201 0 320.5 -103t119.5 -255q0 -64 -21.5 -117.5t-53.5 -87.5t-70 -71.5t-70.5 -71.5t-56 -87.5t-25.5 -117.5h-287q0 71 15.5 130t39.5 99t53.5 73.5t59.5 59.5t54 49.5t39.5 51.5t15.5 59q0 55 -36 89t-97 34q-57 0 -95 -46 t-38 -128zM317 143q0 61 46.5 107.5t107.5 46.5t107.5 -46.5t46.5 -107.5t-46 -107t-108 -46t-108 46t-46 107z" />
<glyph unicode="@" horiz-adv-x="1556" d="M72 461q0 141 54.5 268t148.5 219t225 145.5t278 53.5q200 0 365 -89.5t258.5 -242.5t93.5 -334q0 -171 -89.5 -275t-217.5 -104q-43 0 -82 12.5t-64 31t-44 36.5t-27 30l-8 13q-3 -5 -10 -13.5t-29.5 -29.5t-48 -37t-65.5 -29.5t-83 -13.5q-133 0 -225 100.5t-92 258.5 t92 258t225 100q45 0 88.5 -23t64.5 -46l21 -23l31 72h164v-359q0 -153 92 -153q50 0 81 46.5t31 147.5q0 134 -68 246.5t-188 179t-266 66.5q-107 0 -202 -40t-163 -108t-107.5 -163t-39.5 -201q0 -142 67.5 -259.5t185 -185t259.5 -67.5q49 0 97 9.5t82 23.5t60.5 28 t40.5 24l13 9q16 -21 33.5 -45.5t38.5 -55t33 -46.5q-6 -5 -18 -13t-52 -29t-83.5 -37t-110 -29t-134.5 -13q-147 0 -278 53.5t-225 145t-148.5 218.5t-54.5 269zM604 461q0 -75 45.5 -124.5t108.5 -49.5t108 49.5t45 124.5t-45 124.5t-108 49.5t-108.5 -49.5t-45.5 -124.5z " />
<glyph unicode="A" horiz-adv-x="1208" d="M-10 0l461 1290h307l461 -1290h-308l-82 246h-450l-82 -246h-307zM461 502h287l-144 430z" />
<glyph unicode="B" horiz-adv-x="1187" d="M123 0v1290h553q174 0 286.5 -104.5t112.5 -253.5q0 -49 -16 -92t-38.5 -70t-44.5 -47t-38 -29l-16 -8q8 -3 22 -10t49 -33.5t62 -58.5t49 -87t22 -118q0 -157 -119 -268t-300 -111h-584zM420 246h256q68 0 116 45.5t48 107.5t-48 108t-116 46h-256v-307zM420 778h225 q61 0 102 39t41 94t-41 94t-102 39h-225v-266z" />
<glyph unicode="C" horiz-adv-x="1331" d="M61 645q0 136 50.5 257.5t136 208.5t202.5 138t246 51q112 0 211.5 -37t173 -101t125 -146.5t74.5 -175.5l-307 -21q-25 83 -96.5 139t-180.5 56q-140 0 -239 -105t-99 -264t99 -264t239 -105q115 0 188 55.5t99 139.5l307 -20q-48 -195 -207.5 -328t-386.5 -133 q-129 0 -246 51t-202.5 138t-136 208.5t-50.5 257.5z" />
<glyph unicode="D" horiz-adv-x="1269" d="M123 0v1290h440q176 0 324.5 -86t234.5 -234.5t86 -324.5t-86 -324.5t-234.5 -234.5t-324.5 -86h-440zM420 287h143q147 0 247.5 102.5t100.5 255.5t-100.5 256t-247.5 103h-143v-717z" />
<glyph unicode="E" horiz-adv-x="1146" d="M123 0v1290h921v-286h-624v-205h573v-287h-573v-225h645v-287h-942z" />
<glyph unicode="F" horiz-adv-x="1064" d="M123 0v1290h891v-286h-594v-267h481v-286h-481v-451h-297z" />
<glyph unicode="G" horiz-adv-x="1423" d="M61 645q0 136 50.5 257.5t136 208.5t202.5 138t246 51q112 0 212 -37t173 -100t124.5 -143t74.5 -170l-307 -21q-26 77 -97.5 131t-179.5 54q-140 0 -239 -105t-99 -264t99 -264t239 -105q113 0 186.5 52t100.5 123h-287v245h625v-696h-205l-51 123q-6 -5 -17 -14 t-48 -32t-77 -40.5t-102 -32t-125 -14.5q-129 0 -246 51t-202.5 138t-136 208.5t-50.5 257.5z" />
<glyph unicode="H" horiz-adv-x="1331" d="M123 0v1290h297v-491h491v491h297v-1290h-297v512h-491v-512h-297z" />
<glyph unicode="I" horiz-adv-x="542" d="M123 0v1290h297v-1290h-297z" />
<glyph unicode="J" horiz-adv-x="993" d="M10 410l297 20q0 -68 41 -111t103 -43t102.5 43t40.5 111v860h297v-860q0 -200 -120.5 -320t-319.5 -120q-198 0 -319.5 117t-121.5 303z" />
<glyph unicode="K" horiz-adv-x="1157" d="M123 0v1290h297v-553l389 553h338l-455 -635l486 -655h-338l-420 573v-573h-297z" />
<glyph unicode="L" horiz-adv-x="1024" d="M123 0v1290h297v-1003h584v-287h-881z" />
<glyph unicode="M" horiz-adv-x="1617" d="M123 0v1290h266l420 -911l420 911h266v-1290h-297v645l-297 -645h-184l-297 645v-645h-297z" />
<glyph unicode="N" horiz-adv-x="1331" d="M123 0v1290h266l522 -758v758h297v-1290h-266l-522 758v-758h-297z" />
<glyph unicode="O" horiz-adv-x="1392" d="M61 645q0 136 50.5 257.5t136 208.5t202.5 138t246 51t246 -51t202.5 -138t136 -208.5t50.5 -257.5t-50.5 -257.5t-136 -208.5t-202.5 -138t-246 -51t-246 51t-202.5 138t-136 208.5t-50.5 257.5zM358 645q0 -159 99 -264t239 -105t239 105t99 264t-99 264t-239 105 t-239 -105t-99 -264z" />
<glyph unicode="P" horiz-adv-x="1146" d="M123 0v1290h502q198 0 329 -127t131 -313t-131 -313t-329 -127h-205v-410h-297zM420 696h205q68 0 115.5 46t47.5 108t-47.5 108t-115.5 46h-205v-308z" />
<glyph unicode="Q" horiz-adv-x="1392" d="M61 645q0 136 50.5 257.5t136 208.5t202.5 138t246 51t246 -51t202.5 -138t136 -208.5t50.5 -257.5q0 -66 -12.5 -130.5t-30.5 -109t-36.5 -80t-31.5 -52.5l-12 -17l123 -123l-164 -174l-133 133q-5 -4 -15.5 -11t-44.5 -24.5t-70.5 -31t-93.5 -24.5t-114 -11 q-129 0 -246 51t-202.5 138t-136 208.5t-50.5 257.5zM358 645q0 -159 99 -264t239 -105q32 0 63 5t45 11l15 5l-133 133l164 174l143 -143q41 92 41 184q0 159 -99 264t-239 105t-239 -105t-99 -264z" />
<glyph unicode="R" horiz-adv-x="1167" d="M123 0v1290h522q196 0 323.5 -118.5t127.5 -290.5q0 -80 -25.5 -150t-60.5 -112t-72.5 -72.5t-61 -42.5t-26.5 -12l287 -492h-328l-236 430h-153v-430h-297zM420 717h225q75 0 119.5 40t44.5 103t-44.5 103.5t-119.5 40.5h-225v-287z" />
<glyph unicode="S" horiz-adv-x="1075" d="M61 410l287 20q0 -174 184 -174q82 0 128.5 38t46.5 95q0 39 -35 66.5t-91 46t-123.5 37.5t-135.5 48t-124 69.5t-91 111t-35 164.5q0 73 32 139.5t90 117.5t145.5 81t192.5 30q204 0 327.5 -114.5t123.5 -294.5l-287 -21q0 76 -44 120t-120 44q-66 0 -109.5 -37.5 t-43.5 -85.5q0 -37 35 -63t91 -43t123.5 -35.5t135.5 -48t124 -71t91 -113.5t35 -168q0 -160 -130 -269.5t-352 -109.5q-219 0 -345 116t-126 304z" />
<glyph unicode="T" horiz-adv-x="1075" d="M20 1004v286h1035v-286h-369v-1004h-297v1004h-369z" />
<glyph unicode="U" horiz-adv-x="1269" d="M102 522v768h297v-768q0 -115 64 -180.5t172 -65.5t171.5 65.5t63.5 180.5v768h297v-768q0 -238 -147 -385t-385 -147t-385.5 147t-147.5 385z" />
<glyph unicode="V" horiz-adv-x="1208" d="M10 1290h307l287 -891l287 891h307l-440 -1290h-307z" />
<glyph unicode="W" horiz-adv-x="1761" d="M10 1290h287l246 -798l245 798h185l246 -798l245 798h287l-410 -1290h-225l-235 758l-236 -758h-225z" />
<glyph unicode="X" horiz-adv-x="1187" d="M0 0l410 655l-390 635h328l246 -420l246 420h327l-389 -635l410 -655h-328l-266 440l-266 -440h-328z" />
<glyph unicode="Y" horiz-adv-x="1157" d="M0 1290h317l263 -512l260 512h317l-430 -809v-481h-297v481z" />
<glyph unicode="Z" d="M61 0v246l553 758h-532v286h911v-246l-553 -757h584v-287h-963z" />
<glyph unicode="[" horiz-adv-x="665" d="M123 -369v1659h491v-286h-204v-1086h204v-287h-491z" />
<glyph unicode="\" horiz-adv-x="798" d="M0 1290h266l533 -1659h-267z" />
<glyph unicode="]" horiz-adv-x="665" d="M51 -82h205v1086h-205v286h492v-1659h-492v287z" />
<glyph unicode="^" horiz-adv-x="860" d="M51 686l297 604h164l297 -604h-236l-143 297l-143 -297h-236z" />
<glyph unicode="_" horiz-adv-x="593" d="M-41 -154h676v-245h-676v245z" />
<glyph unicode="`" horiz-adv-x="532" d="M61 1300h277l133 -266h-215z" />
<glyph unicode="a" horiz-adv-x="993" d="M61 256q0 57 17 103.5t58 87t104.5 68t161 43t223.5 15.5q0 68 -34 106t-89 38q-29 0 -52 -9.5t-35.5 -23t-21 -27t-11.5 -23.5l-3 -9l-277 20q24 145 128 231.5t282 86.5q169 0 279 -110.5t110 -279.5v-573h-205l-41 92q-5 -4 -13.5 -11t-36.5 -24.5t-58 -31t-76 -24.5 t-92 -11q-150 0 -234 73.5t-84 192.5zM338 287q0 -40 30.5 -66t82.5 -26q77 0 125.5 48.5t48.5 125.5v41q-113 0 -178.5 -16.5t-87 -42t-21.5 -64.5z" />
<glyph unicode="b" horiz-adv-x="1116" d="M102 0v1290h277v-420q4 3 11 8.5t30.5 20t49 25t65 19.5t79.5 9q117 0 218 -62t162 -173t61 -246t-61 -246t-162 -173t-218 -62q-46 0 -90 10.5t-74.5 25.5t-54.5 30t-35 26l-12 10l-41 -92h-205zM369 471q0 -98 59 -161.5t145 -63.5t145.5 63.5t59.5 161.5t-59.5 161.5 t-145.5 63.5t-145 -63.5t-59 -161.5z" />
<glyph unicode="c" horiz-adv-x="1044" d="M61 471q0 206 141 349t341 143q77 0 144 -20.5t111.5 -53t80.5 -71.5t56.5 -78.5t34.5 -72t18 -53.5l5 -20l-276 -21q-2 5 -5.5 14.5t-17.5 32.5t-32 40.5t-50 32t-69 14.5q-87 0 -146 -65.5t-59 -170.5t59 -170t146 -65q37 0 68.5 13.5t50.5 33t32 39.5t18 34l5 13 l276 -21q-1 -8 -4.5 -21t-18.5 -51.5t-34.5 -73t-56.5 -77t-81 -73t-111 -51.5t-144 -21q-200 0 -341 142.5t-141 348.5z" />
<glyph unicode="d" horiz-adv-x="1116" d="M61 471q0 135 61 246t162 173t218 62q64 0 122.5 -20.5t85.5 -41.5l27 -20v420h277v-1290h-205l-41 92q-4 -4 -12 -11t-34.5 -24.5t-55 -31t-73.5 -24.5t-91 -11q-117 0 -218 62t-162 173t-61 246zM338 471q0 -98 59.5 -161.5t145.5 -63.5t145.5 63.5t59.5 161.5 t-59.5 161.5t-145.5 63.5t-145.5 -63.5t-59.5 -161.5z" />
<glyph unicode="e" horiz-adv-x="1054" d="M61 471q0 206 141 349t341 143q128 0 232.5 -60.5t166.5 -173.5t62 -258q0 -18 -3 -41t-5 -37l-3 -14h-645q16 -58 69 -100.5t126 -42.5q29 0 54 6.5t40.5 15t27 17.5t16.5 15l5 7l287 -21q-42 -127 -155 -211.5t-286 -84.5q-126 0 -234.5 64.5t-172.5 178t-64 248.5z M348 553h389q-16 65 -68.5 109.5t-125.5 44.5t-126 -44.5t-69 -109.5z" />
<glyph unicode="f" horiz-adv-x="686" d="M41 645v256h123v51q0 168 88 258t250 90q35 0 68 -5t49 -10l16 -5v-246q-31 10 -72 10q-55 0 -89 -36t-34 -97v-10h195v-256h-195v-645h-276v645h-123z" />
<glyph unicode="g" horiz-adv-x="1105" d="M61 502q0 190 126 320t305 130q46 0 90 -10.5t74.5 -25.5t54.5 -30t35 -26l12 -10l41 92h205v-860q0 -187 -130 -308.5t-342 -121.5q-71 0 -133.5 17.5t-106 45.5t-79.5 61.5t-57.5 67.5t-36.5 62t-21 46l-6 17l277 21l5 -10t17 -22t30.5 -28t46.5 -22t64 -10 q84 0 139.5 53.5t55.5 130.5v51l-8.5 -8.5t-27 -20t-46 -25t-66 -19.5t-87.5 -9q-179 0 -305 130.5t-126 320.5zM338 502q0 -85 54.5 -140t139.5 -55t140 55t55 140t-55 139.5t-140 54.5t-139.5 -54.5t-54.5 -139.5z" />
<glyph unicode="h" horiz-adv-x="1095" d="M102 0v1290h277v-440q3 4 10 11t31 24.5t52 31t74.5 24.5t98.5 11q157 0 258 -109t101 -290v-553h-277v502q0 91 -48 142.5t-126 51.5t-126 -51.5t-48 -142.5v-502h-277z" />
<glyph unicode="i" horiz-adv-x="512" d="M102 1198q0 62 46 108t108 46t108 -46t46 -108t-46 -108t-108 -46t-108 46t-46 108zM113 0v942h276v-942h-276z" />
<glyph unicode="j" horiz-adv-x="522" d="M-72 -72q31 -10 72 -10q55 0 89 36t34 97v891h276v-932q0 -168 -88 -258t-250 -90q-32 0 -65.5 5t-50.5 11l-17 5v245zM113 1198q0 62 46 108t107 46q62 0 108 -46t46 -108t-46 -108t-108 -46q-61 0 -107 46t-46 108z" />
<glyph unicode="k" horiz-adv-x="962" d="M102 0v1290h277v-727l256 379h317l-317 -450l348 -492h-317l-287 420v-420h-277z" />
<glyph unicode="l" horiz-adv-x="481" d="M102 0v1290h277v-1290h-277z" />
<glyph unicode="m" horiz-adv-x="1556" d="M102 0v942h205l41 -92l11 11t31 24.5t49.5 31t65 24.5t79.5 11q55 0 102.5 -12.5t76 -31t49.5 -36.5t30 -30l8 -13l13.5 13.5t36.5 29.5t58 37t76 29.5t92 13.5q157 0 247.5 -100.5t90.5 -288.5v-563h-276v532q0 74 -38.5 119t-94.5 45t-94.5 -45t-38.5 -119v-532h-277 v532q0 74 -38.5 119t-94.5 45t-94.5 -45t-38.5 -119v-532h-277z" />
<glyph unicode="n" horiz-adv-x="1095" d="M102 0v942h205l41 -92q5 4 13.5 11t36.5 24.5t58.5 31t76.5 24.5t92 11q170 0 274.5 -108t104.5 -291v-553h-277v502q0 91 -48 142.5t-126 51.5t-126 -51.5t-48 -142.5v-502h-277z" />
<glyph unicode="o" d="M61 471q0 206 141 349t341 143t340.5 -143t140.5 -349t-140.5 -348.5t-340.5 -142.5t-341 142.5t-141 348.5zM338 471q0 -105 59 -170t146 -65t146 65t59 170t-59 170.5t-146 65.5t-146 -65.5t-59 -170.5z" />
<glyph unicode="p" horiz-adv-x="1116" d="M102 -328v1270h205l41 -92q4 4 12 11t34.5 24.5t55 31t73.5 24.5t91 11q117 0 218 -62t162 -173t61 -246t-61 -246t-162 -173t-218 -62q-64 0 -122.5 20.5t-85.5 41.5l-27 20v-400h-277zM369 471q0 -98 59 -161.5t145 -63.5t145.5 63.5t59.5 161.5t-59.5 161.5 t-145.5 63.5t-145 -63.5t-59 -161.5z" />
<glyph unicode="q" horiz-adv-x="1116" d="M61 471q0 135 61 246t162 173t218 62q46 0 90 -10.5t74.5 -25.5t54.5 -30t35 -26l12 -10l41 92h205v-1270h-277v400q-4 -3 -11 -8.5t-30.5 -20t-49 -25t-65 -19.5t-79.5 -9q-117 0 -218 62t-162 173t-61 246zM338 471q0 -98 59.5 -161.5t145.5 -63.5t145.5 63.5 t59.5 161.5t-59.5 161.5t-145.5 63.5t-145.5 -63.5t-59.5 -161.5z" />
<glyph unicode="r" horiz-adv-x="696" d="M102 0v942h205l41 -102q3 5 9.5 12.5t28.5 26.5t46 34t62.5 27t78.5 12q23 0 43.5 -2.5t29.5 -5.5l9 -2v-287q-41 21 -102 21q-78 0 -126 -52t-48 -143v-481h-277z" />
<glyph unicode="s" horiz-adv-x="911" d="M61 287l267 20q8 -47 39.5 -74.5t83.5 -27.5q51 0 81.5 24.5t30.5 57.5q0 20 -26.5 35.5t-69 27.5t-93.5 26t-102.5 37.5t-94 55t-69 85t-26.5 122.5q0 120 97.5 203.5t260.5 83.5q176 0 275.5 -78t124.5 -209l-267 -21q-8 33 -38.5 57.5t-73.5 24.5q-44 0 -68 -19.5 t-24 -51.5q0 -20 26.5 -35.5t69 -27.5t94 -26.5t102.5 -37.5t93.5 -55t69 -85.5t26.5 -122.5q0 -121 -104.5 -208.5t-274.5 -87.5q-185 0 -285.5 81t-124.5 226z" />
<glyph unicode="t" horiz-adv-x="747" d="M41 686v236h72q54 0 83 29t29 83v133h236v-225h194v-256h-194v-307q0 -61 34 -97t89 -36q18 0 36 2.5t26 5.5l9 2v-246q-55 -20 -133 -20q-162 0 -250 90t-88 258v348h-143z" />
<glyph unicode="u" horiz-adv-x="1095" d="M92 389v553h277v-502q0 -91 48 -142.5t126 -51.5t126 51.5t48 142.5v502h276v-942h-205l-40 92q-5 -4 -13.5 -11t-36.5 -24.5t-58.5 -31t-76.5 -24.5t-92 -11q-170 0 -274.5 108t-104.5 291z" />
<glyph unicode="v" horiz-adv-x="1003" d="M0 942h297l205 -614l205 614h297l-359 -942h-287z" />
<glyph unicode="w" horiz-adv-x="1433" d="M0 942h287l164 -553l174 553h184l174 -553l164 553h287l-318 -942h-235l-164 522l-164 -522h-236z" />
<glyph unicode="x" horiz-adv-x="942" d="M-10 0l307 481l-287 461h307l154 -266l154 266h307l-287 -461l307 -481h-307l-174 287l-174 -287h-307z" />
<glyph unicode="y" horiz-adv-x="1003" d="M0 942h297l205 -584l205 584h297l-379 -942q-72 -180 -156 -259t-213 -79q-18 0 -41 2.5t-37 5.5l-14 2v236q80 0 124.5 33.5t69.5 99.5z" />
<glyph unicode="z" horiz-adv-x="890" d="M61 0v225l390 451h-390v266h748v-225l-389 -451h409v-266h-768z" />
<glyph unicode="{" horiz-adv-x="706" d="M72 348v225q54 0 83 29.5t29 83.5v277q0 169 79.5 248t248.5 79h143v-266h-82q-54 0 -83 -29.5t-29 -83.5v-256q0 -46 -12.5 -83t-30.5 -56.5t-36.5 -33t-31.5 -17.5l-12 -4q5 -1 13.5 -4t29.5 -17.5t37 -34t29.5 -56.5t13.5 -83v-256q0 -54 29 -83t83 -29h82v-267h-143 q-169 0 -248.5 79.5t-79.5 248.5v277q0 54 -29 83t-83 29z" />
<glyph unicode="|" horiz-adv-x="778" d="M246 -328v1618h286v-1618h-286z" />
<glyph unicode="}" horiz-adv-x="706" d="M51 -102h82q54 0 83.5 29t29.5 83v256q0 46 12.5 83t31 57t36.5 33.5t30 17.5l13 4q-5 1 -13.5 4t-29.5 17t-37 33.5t-29.5 56.5t-13.5 83v256q0 54 -29.5 83.5t-83.5 29.5h-82v266h144q169 0 248 -79t79 -248v-277q0 -54 29.5 -83.5t83.5 -29.5v-225q-54 0 -83.5 -29 t-29.5 -83v-277q0 -169 -79 -248.5t-248 -79.5h-144v267z" />
<glyph unicode="~" horiz-adv-x="952" d="M10 389q0 164 73 251t193 87q61 0 131 -25.5t128 -51t90 -25.5q39 0 65.5 28.5t26.5 73.5l225 -20q0 -164 -73 -251t-193 -87q-61 0 -130.5 25.5t-127.5 51t-90 25.5q-39 0 -65.5 -28.5t-26.5 -73.5z" />
<glyph unicode="&#xa1;" horiz-adv-x="573" d="M123 -328l31 881h266l31 -881h-328zM133 799q0 61 46 107t108 46q61 0 107 -46t46 -107q0 -62 -46 -108t-107 -46t-107.5 46.5t-46.5 107.5z" />
<glyph unicode="&#xa2;" horiz-adv-x="1044" d="M61 471q0 93 30 175.5t79.5 141.5t111.5 98.5t128 55.5v154h276v-154q72 -20 130 -63.5t89.5 -90.5t52.5 -91.5t28 -73.5l7 -29l-276 -21q-2 5 -5.5 14.5t-17.5 32.5t-32 40.5t-50 32t-69 14.5q-87 0 -146 -65.5t-59 -170.5t59 -170t146 -65q37 0 68.5 13.5t50.5 33 t32 39.5t18 34l5 13l276 -21q-2 -11 -7 -29.5t-27.5 -68.5t-53.5 -93t-89 -88.5t-130 -68.5v-174h-276v174q-154 48 -251.5 171t-97.5 300z" />
<glyph unicode="&#xa3;" horiz-adv-x="1081" d="M72 0v287q51 0 84.5 34.5t33.5 88.5v82h-102v245h102v154q0 186 118 297.5t323 111.5q182 0 301 -112.5t119 -276.5l-297 -20q0 67 -39 110t-94 43q-56 0 -95 -43t-39 -110v-154h287v-245h-287v-82q0 -36 -15.5 -67t-30.5 -43l-15 -13h606v-287h-960z" />
<glyph unicode="&#xa4;" horiz-adv-x="1187" d="M51 174v236h144v92h-144v235h144v553h471q210 0 335 -113t125 -286q0 -166 -125 -277.5t-335 -111.5h-174v-92h348v-236h-348v-174h-297v174h-144zM492 737h163q75 0 124.5 45.5t49.5 108.5t-49.5 108t-124.5 45h-163v-307z" />
<glyph unicode="&#xa5;" horiz-adv-x="1177" d="M10 1290h318l262 -512l260 512h317l-327 -604h153v-215h-256v-82h256v-215h-256v-174h-297v174h-256v215h256v82h-256v215h154z" />
<glyph unicode="&#xa6;" horiz-adv-x="778" d="M246 307h286v-635h-286v635zM246 655v635h286v-635h-286z" />
<glyph unicode="&#xa7;" horiz-adv-x="1003" d="M82 543q0 55 18 102.5t43.5 76t51 49.5t43.5 29l18 9q-5 3 -12.5 9.5t-27 28t-34.5 44.5t-27 59.5t-12 73.5q0 112 94.5 194t243.5 82q170 0 271.5 -83.5t117.5 -212.5l-245 -21q0 5 -1.5 12.5t-9 27t-18.5 34.5t-33 27t-51 12q-45 0 -73.5 -26.5t-28.5 -65.5 q0 -29 22 -53t58 -41t82 -36.5t94 -38.5t94 -48.5t82 -65t58 -89.5t22 -120q0 -55 -18 -102.5t-43.5 -76t-51 -49.5t-43.5 -30l-18 -8q5 -3 12.5 -9.5t26.5 -28t34 -44.5t27 -59.5t12 -73.5q0 -112 -96.5 -194.5t-251.5 -82.5q-178 0 -276.5 81.5t-122.5 225.5l245 21 q0 -5 1.5 -13.5t9.5 -29.5t20 -37t36 -29.5t56 -13.5q52 0 82.5 26t30.5 66q0 29 -22 53t-58 41t-82 36.5t-94 38.5t-94 48.5t-82 65t-58 89.5t-22 120zM348 553q0 -111 205 -184q4 2 11 6t24.5 17t31 27.5t24.5 37t11 45.5q0 111 -204 184q-4 -2 -11 -6t-25 -17 t-31.5 -27.5t-24.5 -37t-11 -45.5z" />
<glyph unicode="&#xa8;" horiz-adv-x="788" d="M61 1167q0 61 41.5 102.5t102.5 41.5t102 -41t41 -103q0 -61 -41 -102t-102 -41q-62 0 -103 41t-41 102zM440 1167q0 61 41 102.5t103 41.5q61 0 102 -41t41 -103q0 -61 -40.5 -102t-102.5 -41t-103 41t-41 102z" />
<glyph unicode="&#xa9;" horiz-adv-x="1474" d="M82 645q0 136 51 257.5t138 208.5t208.5 138t257.5 51t257.5 -51t209 -138t138.5 -208.5t51 -257.5t-51 -257.5t-138.5 -208.5t-209 -138t-257.5 -51t-257.5 51t-208.5 138t-138 208.5t-51 257.5zM256 645q0 -206 140.5 -348.5t340.5 -142.5t341 142.5t141 348.5 t-141 349t-341 143t-340.5 -143t-140.5 -349zM399 645q0 145 99.5 246.5t238.5 101.5q74 0 135.5 -26.5t95.5 -64t57.5 -75t31.5 -63.5l8 -27l-184 -10q-1 4 -4 11t-13.5 24.5t-24.5 31t-38 24.5t-53 11q-71 0 -117.5 -50.5t-46.5 -133.5t46.5 -133.5t117.5 -50.5 q29 0 53 10.5t38 25.5t24 30t14 25l4 11l184 -10q-3 -10 -8.5 -27.5t-30.5 -61.5t-58.5 -78t-95 -61.5t-135.5 -27.5q-139 0 -238.5 101.5t-99.5 246.5z" />
<glyph unicode="&#xaa;" horiz-adv-x="655" d="M51 881q0 92 80 143t268 51q0 3 -0.5 8t-5 17t-12 21.5t-24.5 17.5t-40 8t-38 -10.5t-19 -20.5l-4 -10h-164q0 87 61.5 140.5t174.5 53.5q114 0 179.5 -62t65.5 -163v-338h-133l-30 62q-7 -8 -20 -20t-58.5 -32t-95.5 -20q-82 0 -133.5 45t-51.5 109zM225 911 q0 -51 72 -51q45 0 73.5 26.5t28.5 65.5v31q-90 0 -132 -22t-42 -50z" />
<glyph unicode="&#xab;" horiz-adv-x="1044" d="M61 461l226 327h276l-225 -327l225 -328h-276zM481 461l226 327h276l-225 -327l225 -328h-276z" />
<glyph unicode="&#xac;" horiz-adv-x="1024" d="M72 573v246h870v-481h-266v235h-604z" />
<glyph unicode="&#xad;" horiz-adv-x="768" d="M72 399v246h624v-246h-624z" />
<glyph unicode="&#xae;" horiz-adv-x="1474" d="M82 645q0 136 51 257.5t138 208.5t208.5 138t257.5 51t257.5 -51t209 -138t138.5 -208.5t51 -257.5t-51 -257.5t-138.5 -208.5t-209 -138t-257.5 -51t-257.5 51t-208.5 138t-138 208.5t-51 257.5zM256 645q0 -206 140.5 -348.5t340.5 -142.5t341 142.5t141 348.5 t-141 349t-341 143t-340.5 -143t-140.5 -349zM492 307v676h276q106 0 176 -65.5t70 -159.5q0 -40 -15 -74t-36 -53.5t-42 -33.5t-36 -19l-15 -5l195 -266h-195l-153 225h-51v-225h-174zM666 686h92q44 0 68 20t24 52t-24 51.5t-68 19.5h-92v-143z" />
<glyph unicode="&#xaf;" horiz-adv-x="665" d="M61 1055v215h543v-215h-543z" />
<glyph unicode="&#xb0;" horiz-adv-x="655" d="M61 1034q0 115 75.5 190.5t191.5 75.5t191 -75t75 -191t-75 -191t-191 -75t-191.5 75.5t-75.5 190.5zM225 1034q0 -46 28.5 -74t74.5 -28t74 28t28 74t-28 74.5t-74 28.5t-74.5 -28.5t-28.5 -74.5z" />
<glyph unicode="&#xb1;" horiz-adv-x="952" d="M61 10v246h287v236h-287v245h287v297h256v-297h287v-245h-287v-236h287v-246h-830z" />
<glyph unicode="&#xb2;" horiz-adv-x="573" d="M41 1270q15 102 78 158.5t168 56.5q120 0 182.5 -55t62.5 -150q0 -36 -15 -69.5t-31 -48.5l-15 -15l-154 -133h205v-154h-471v123l185 164q11 9 28 24t45.5 50.5t28.5 58.5q0 51 -62 51q-31 0 -51 -20t-20 -51z" />
<glyph unicode="&#xb3;" horiz-adv-x="583" d="M31 1055q1 0 87 5t87 5q0 -24 22 -42.5t52 -18.5q40 0 59.5 16t19.5 35q0 51 -79 51h-64v133h61q23 0 42.5 13t19.5 28q0 51 -62 51q-71 0 -71 -51l-164 10q8 88 71 141.5t175 53.5q111 0 173 -52.5t62 -132.5q0 -36 -18 -66.5t-36 -43.5l-17 -12l10 -5t22 -15.5 t28 -26.5t22 -37.5t10 -49.5q0 -79 -72 -136.5t-184 -57.5t-180 58.5t-76 146.5z" />
<glyph unicode="&#xb4;" horiz-adv-x="532" d="M61 1034l134 266h276l-195 -266h-215z" />
<glyph unicode="&#xb5;" horiz-adv-x="1105" d="M102 -328v1270h277v-502q0 -91 48 -142.5t126 -51.5t126 51.5t48 142.5v502h277v-942h-205l-41 92q-3 -4 -8.5 -11t-26 -24.5t-43 -31t-60 -24.5t-77.5 -11q-41 0 -82 12.5t-61 25.5l-21 13v-369h-277z" />
<glyph unicode="&#xb6;" horiz-adv-x="1105" d="M41 952q0 139 101.5 238.5t246.5 99.5h594v-1474h-225v1228h-144v-1228h-225v798q-145 0 -246.5 99.5t-101.5 238.5z" />
<glyph unicode="&#xb7;" horiz-adv-x="471" d="M82 645q0 61 46 107.5t108 46.5q61 0 107 -46t46 -108q0 -61 -45.5 -107t-107.5 -46t-108 46t-46 107z" />
<glyph unicode="&#xb8;" horiz-adv-x="491" d="M61 -287q41 -10 82 -10q52 0 77.5 19.5t25.5 52.5q0 25 -24.5 43t-67.5 18q-9 0 -21.5 -2.5t-21.5 -5.5l-9 -2l72 174h123l-41 -82q7 -1 19 -3t42 -13.5t52.5 -28t41.5 -48t19 -71.5q0 -74 -61 -119t-185 -45q-31 0 -62 5t-46 11l-15 5v102z" />
<glyph unicode="&#xb9;" horiz-adv-x="512" d="M31 1341l215 134h123v-615h-185v389l-71 -41z" />
<glyph unicode="&#xba;" horiz-adv-x="675" d="M51 1014q0 115 85.5 200.5t201.5 85.5t201.5 -85.5t85.5 -200.5q0 -116 -85.5 -201.5t-201.5 -85.5t-201.5 85.5t-85.5 201.5zM246 1014q0 -52 26 -82.5t66 -30.5t66 30.5t26 82.5t-26 82t-66 30t-66 -30t-26 -82z" />
<glyph unicode="&#xbb;" horiz-adv-x="1044" d="M61 133l226 328l-226 327h277l225 -327l-225 -328h-277zM481 133l226 328l-226 327h277l225 -327l-225 -328h-277z" />
<glyph unicode="&#xbc;" horiz-adv-x="1259" d="M31 1157l215 133h123v-614h-185v389l-71 -41zM113 0l788 1290h236l-789 -1290h-235zM686 113v112l246 389h215v-348h72v-153h-72v-113h-184v113h-277zM870 266h103v164z" />
<glyph unicode="&#xbd;" horiz-adv-x="1290" d="M31 1157l215 133h123v-614h-185v389l-71 -41zM113 0l788 1290h236l-789 -1290h-235zM758 410q15 102 78 158.5t168 56.5q120 0 182.5 -55t62.5 -150q0 -36 -15.5 -69.5t-30.5 -48.5l-15 -15l-154 -133h205v-154h-471v123l184 164q12 9 29 24t45.5 50.5t28.5 58.5 q0 51 -62 51q-31 0 -51 -20.5t-20 -51.5z" />
<glyph unicode="&#xbe;" horiz-adv-x="1345" d="M31 870q1 0 87 5.5t87 5.5q0 -24 22 -43t52 -19q40 0 59.5 16t19.5 35q0 52 -79 52h-64v133h61q23 0 42.5 13t19.5 28q0 51 -62 51q-71 0 -71 -51l-164 10q8 88 71 141t175 53q111 0 173 -52t62 -132q0 -36 -18 -67t-36 -43l-17 -13l10 -5t22 -15t28 -26t22 -37.5 t10 -49.5q0 -79 -72 -136.5t-184 -57.5t-180 58t-76 146zM199 0l788 1290h236l-789 -1290h-235zM772 113v112l246 389h215v-348h72v-153h-72v-113h-184v113h-277zM956 266h103v164z" />
<glyph unicode="&#xbf;" horiz-adv-x="931" d="M31 20q0 56 16 102.5t41.5 79.5t56.5 62.5t62 58.5t57.5 60t44 74.5t19.5 95.5h286q0 -67 -15 -122.5t-39.5 -93.5t-54 -70t-59 -57.5t-54 -49t-39.5 -51t-15 -58.5q0 -55 36 -89t97 -34q57 0 95 46t38 128l297 -20q-15 -193 -130.5 -306.5t-299.5 -113.5 q-201 0 -320.5 103t-119.5 255zM307 799q0 61 46 107t108 46q61 0 107 -46t46 -107q0 -62 -46 -108t-107 -46t-107.5 46.5t-46.5 107.5z" />
<glyph unicode="&#xc0;" horiz-adv-x="1208" d="M-10 0l461 1290h307l461 -1290h-308l-82 246h-450l-82 -246h-307zM297 1700h276l134 -266h-215zM461 502h287l-144 430z" />
<glyph unicode="&#xc1;" horiz-adv-x="1208" d="M-10 0l461 1290h307l461 -1290h-308l-82 246h-450l-82 -246h-307zM461 502h287l-144 430zM502 1434l133 266h276l-194 -266h-215z" />
<glyph unicode="&#xc2;" horiz-adv-x="1208" d="M-10 0l461 1290h307l461 -1290h-308l-82 246h-450l-82 -246h-307zM276 1434l205 266h246l205 -266h-236l-92 122l-92 -122h-236zM461 502h287l-144 430z" />
<glyph unicode="&#xc3;" horiz-adv-x="1208" d="M-10 0l461 1290h307l461 -1290h-308l-82 246h-450l-82 -246h-307zM297 1423q0 125 51.5 190.5t132.5 65.5q42 0 78.5 -14.5t58 -31.5t45.5 -31.5t44 -14.5q32 0 51.5 24t19.5 68l154 -20q0 -125 -51.5 -190.5t-132.5 -65.5q-42 0 -78.5 14.5t-58 31.5t-45.5 31.5 t-44 14.5q-31 0 -51 -24t-20 -68zM461 502h287l-144 430z" />
<glyph unicode="&#xc4;" horiz-adv-x="1208" d="M-10 0l461 1290h307l461 -1290h-308l-82 246h-450l-82 -246h-307zM272 1544q0 62 41 103t103 41q61 0 102 -41t41 -103t-40.5 -102.5t-102.5 -40.5t-103 41t-41 102zM461 502h287l-144 430zM651 1544q0 62 41.5 103t102.5 41t102 -41t41 -103t-41 -102.5t-102 -40.5 q-62 0 -103 41t-41 102z" />
<glyph unicode="&#xc5;" horiz-adv-x="1208" d="M-10 0l461 1290h307l461 -1290h-308l-82 246h-450l-82 -246h-307zM399 1571q0 85 56.5 139.5t148.5 54.5t148.5 -54.5t56.5 -139.5t-56.5 -140t-148.5 -55t-148.5 55t-56.5 140zM461 502h287l-144 430zM532 1571q0 -31 20.5 -51.5t51.5 -20.5t51.5 20.5t20.5 51.5 t-20.5 51t-51.5 20t-51.5 -20t-20.5 -51z" />
<glyph unicode="&#xc6;" horiz-adv-x="1751" d="M-51 0l665 1290h1035v-286h-564v-205h512v-287h-512v-225h584v-287h-881v246h-378l-123 -246h-338zM553 532h235v472z" />
<glyph unicode="&#xc7;" horiz-adv-x="1331" d="M61 645q0 136 50.5 257.5t136 208.5t202.5 138t246 51q112 0 211.5 -37t173 -101t125 -146.5t74.5 -175.5l-307 -21q-25 83 -96.5 139t-180.5 56q-140 0 -239 -105t-99 -264t99 -264t239 -105q115 0 188 55.5t99 139.5l307 -20q-47 -184 -192.5 -314.5t-354.5 -144.5 l-36 -74q7 -1 19 -3t42 -13.5t52.5 -28t41.5 -48t19 -71.5q0 -74 -61 -119t-185 -45q-31 0 -62 5t-46 11l-15 5v102q41 -10 82 -10q52 0 77 19.5t25 52.5q0 25 -24.5 43t-67.5 18q-9 0 -21 -2.5t-21 -5.5l-9 -2l70 170q-156 17 -284.5 106t-203 232t-74.5 311z" />
<glyph unicode="&#xc8;" horiz-adv-x="1146" d="M123 0v1290h921v-286h-624v-205h573v-287h-573v-225h645v-287h-942zM315 1700h277l133 -266h-215z" />
<glyph unicode="&#xc9;" horiz-adv-x="1146" d="M123 0v1290h921v-286h-624v-205h573v-287h-573v-225h645v-287h-942zM473 1434l133 266h277l-195 -266h-215z" />
<glyph unicode="&#xca;" horiz-adv-x="1146" d="M123 0v1290h921v-286h-624v-205h573v-287h-573v-225h645v-287h-942zM256 1434l205 266h246l204 -266h-235l-92 122l-92 -122h-236z" />
<glyph unicode="&#xcb;" horiz-adv-x="1146" d="M123 0v1290h921v-286h-624v-205h573v-287h-573v-225h645v-287h-942zM262 1544q0 62 41 103t103 41q61 0 102 -41t41 -103t-40.5 -102.5t-102.5 -40.5t-103 41t-41 102zM641 1544q0 62 41 103t102 41q62 0 103 -41t41 -103q0 -61 -41 -102t-103 -41t-102.5 40.5 t-40.5 102.5z" />
<glyph unicode="&#xcc;" horiz-adv-x="542" d="M-31 1700h277l133 -266h-215zM123 0v1290h297v-1290h-297z" />
<glyph unicode="&#xcd;" horiz-adv-x="542" d="M123 0v1290h297v-1290h-297zM143 1434l133 266h277l-195 -266h-215z" />
<glyph unicode="&#xce;" horiz-adv-x="542" d="M-61 1434l204 266h246l205 -266h-236l-92 122l-92 -122h-235zM123 0v1290h297v-1290h-297z" />
<glyph unicode="&#xcf;" horiz-adv-x="542" d="M-61 1546q0 62 41 103t102 41t102 -41t41 -103t-40.5 -102.5t-102.5 -40.5t-102.5 40.5t-40.5 102.5zM123 0v1290h297v-1290h-297zM317 1546q0 62 41.5 103t102.5 41t102 -41t41 -103t-41 -102.5t-102 -40.5q-62 0 -103 41t-41 102z" />
<glyph unicode="&#xd0;" horiz-adv-x="1331" d="M41 512v246h143v532h441q176 0 324.5 -86t234.5 -234.5t86 -324.5t-86 -324.5t-234.5 -234.5t-324.5 -86h-441v512h-143zM481 287h144q147 0 247.5 102.5t100.5 255.5t-100.5 256t-247.5 103h-144v-246h205v-246h-205v-225z" />
<glyph unicode="&#xd1;" horiz-adv-x="1331" d="M123 0v1290h266l522 -758v758h297v-1290h-266l-522 758v-758h-297zM358 1444q0 125 52 190.5t133 65.5q42 0 78.5 -14.5t57.5 -31.5t45 -31.5t44 -14.5q32 0 52 24t20 68l153 -21q0 -125 -51.5 -190.5t-132.5 -65.5q-53 0 -96 23.5t-74 46.5t-55 23q-31 0 -51.5 -24.5 t-20.5 -68.5z" />
<glyph unicode="&#xd2;" horiz-adv-x="1392" d="M61 645q0 136 50.5 257.5t136 208.5t202.5 138t246 51t246 -51t202.5 -138t136 -208.5t50.5 -257.5t-50.5 -257.5t-136 -208.5t-202.5 -138t-246 -51t-246 51t-202.5 138t-136 208.5t-50.5 257.5zM358 645q0 -159 99 -264t239 -105t239 105t99 264t-99 264t-239 105 t-239 -105t-99 -264zM399 1700h277l133 -266h-215z" />
<glyph unicode="&#xd3;" horiz-adv-x="1392" d="M61 645q0 136 50.5 257.5t136 208.5t202.5 138t246 51t246 -51t202.5 -138t136 -208.5t50.5 -257.5t-50.5 -257.5t-136 -208.5t-202.5 -138t-246 -51t-246 51t-202.5 138t-136 208.5t-50.5 257.5zM358 645q0 -159 99 -264t239 -105t239 105t99 264t-99 264t-239 105 t-239 -105t-99 -264zM594 1434l133 266h277l-195 -266h-215z" />
<glyph unicode="&#xd4;" horiz-adv-x="1392" d="M61 645q0 136 50.5 257.5t136 208.5t202.5 138t246 51t246 -51t202.5 -138t136 -208.5t50.5 -257.5t-50.5 -257.5t-136 -208.5t-202.5 -138t-246 -51t-246 51t-202.5 138t-136 208.5t-50.5 257.5zM358 645q0 -159 99 -264t239 -105t239 105t99 264t-99 264t-239 105 t-239 -105t-99 -264zM369 1434l204 266h246l205 -266h-236l-92 122l-92 -122h-235z" />
<glyph unicode="&#xd5;" horiz-adv-x="1392" d="M61 645q0 136 50.5 257.5t136 208.5t202.5 138t246 51t246 -51t202.5 -138t136 -208.5t50.5 -257.5t-50.5 -257.5t-136 -208.5t-202.5 -138t-246 -51t-246 51t-202.5 138t-136 208.5t-50.5 257.5zM358 645q0 -159 99 -264t239 -105t239 105t99 264t-99 264t-239 105 t-239 -105t-99 -264zM379 1423q0 125 51.5 190.5t132.5 65.5q42 0 78.5 -14.5t57.5 -31.5t45 -31.5t44 -14.5q32 0 52 24t20 68l154 -20q0 -125 -52 -190.5t-133 -65.5q-42 0 -78.5 14.5t-57.5 31.5t-45 31.5t-44 14.5q-31 0 -51.5 -24t-20.5 -68z" />
<glyph unicode="&#xd6;" horiz-adv-x="1392" d="M61 645q0 136 50.5 257.5t136 208.5t202.5 138t246 51t246 -51t202.5 -138t136 -208.5t50.5 -257.5t-50.5 -257.5t-136 -208.5t-202.5 -138t-246 -51t-246 51t-202.5 138t-136 208.5t-50.5 257.5zM358 645q0 -159 99 -264t239 -105t239 105t99 264t-99 264t-239 105 t-239 -105t-99 -264zM369 1546q0 62 41 103t102 41t102 -41t41 -103t-40.5 -102.5t-102.5 -40.5t-102.5 40.5t-40.5 102.5zM748 1546q0 62 41 103t102 41t102 -41t41 -103t-41 -102.5t-102 -40.5t-102 40.5t-41 102.5z" />
<glyph unicode="&#xd7;" horiz-adv-x="962" d="M102 297l215 225l-215 226l174 163l205 -215l205 215l174 -163l-215 -226l215 -225l-174 -164l-205 215l-205 -215z" />
<glyph unicode="&#xd8;" horiz-adv-x="1433" d="M51 205l113 112q-3 6 -8.5 16.5t-20 45.5t-25 71.5t-19.5 89.5t-9 105q0 136 50.5 257.5t136 208.5t202.5 138t246 51q57 0 115 -11.5t100 -28t75.5 -33t50.5 -27.5l17 -12l113 102l194 -205l-112 -112q3 -5 8.5 -15.5t20 -44t25 -69t19.5 -90t9 -109.5 q0 -136 -50.5 -257.5t-136 -208.5t-202.5 -138t-246 -51q-57 0 -115.5 11.5t-100 28t-75.5 33t-51 27.5l-17 12l-112 -102zM379 645q0 -36 2.5 -64.5t4.5 -38.5l3 -10l471 451q-51 31 -143 31q-140 0 -239 -105t-99 -264zM573 307q52 -31 144 -31q140 0 239 105t99 264 q0 36 -2.5 64.5t-5.5 38.5l-3 10z" />
<glyph unicode="&#xd9;" horiz-adv-x="1269" d="M102 522v768h297v-768q0 -115 64 -180.5t172 -65.5t171.5 65.5t63.5 180.5v768h297v-768q0 -238 -147 -385t-385 -147t-385.5 147t-147.5 385zM348 1700h277l133 -266h-215z" />
<glyph unicode="&#xda;" horiz-adv-x="1269" d="M102 522v768h297v-768q0 -115 64 -180.5t172 -65.5t171.5 65.5t63.5 180.5v768h297v-768q0 -238 -147 -385t-385 -147t-385.5 147t-147.5 385zM522 1434l133 266h277l-195 -266h-215z" />
<glyph unicode="&#xdb;" horiz-adv-x="1269" d="M102 522v768h297v-768q0 -115 64 -180.5t172 -65.5t171.5 65.5t63.5 180.5v768h297v-768q0 -238 -147 -385t-385 -147t-385.5 147t-147.5 385zM307 1434l205 266h246l205 -266h-236l-92 122l-92 -122h-236z" />
<glyph unicode="&#xdc;" horiz-adv-x="1269" d="M102 522v768h297v-768q0 -115 64 -180.5t172 -65.5t171.5 65.5t63.5 180.5v768h297v-768q0 -238 -147 -385t-385 -147t-385.5 147t-147.5 385zM307 1548q0 62 41.5 103t102.5 41t102 -41t41 -103t-41 -102.5t-102 -40.5q-62 0 -103 41t-41 102zM686 1548q0 62 41 103 t102 41t102.5 -41t41.5 -103q0 -61 -41 -102t-103 -41q-61 0 -102 40.5t-41 102.5z" />
<glyph unicode="&#xdd;" horiz-adv-x="1157" d="M0 1290h317l263 -512l260 512h317l-430 -809v-481h-297v481zM471 1434l133 266h277l-195 -266h-215z" />
<glyph unicode="&#xde;" horiz-adv-x="1228" d="M102 0v1290h297v-194h308q197 0 328.5 -125.5t131.5 -304.5t-131.5 -304.5t-328.5 -125.5h-308v-236h-297zM399 522h308q67 0 115 44t48 100t-48 99.5t-115 43.5h-308v-287z" />
<glyph unicode="&#xdf;" horiz-adv-x="1116" d="M123 0v901q0 170 118.5 284.5t301.5 114.5q187 0 303.5 -104t116.5 -254q0 -46 -11.5 -88t-28 -69.5t-33.5 -48.5t-28 -30l-12 -10q8 -4 22 -11.5t49.5 -36t62.5 -62.5t49 -92.5t22 -124.5q0 -155 -111 -262t-278 -107h-123v246h102q55 0 94 41t39 102t-39 102t-94 41 h-102v246q68 0 105.5 35.5t37.5 97.5q0 69 -37 106.5t-106 37.5q-62 0 -103 -43t-41 -111v-901h-276z" />
<glyph unicode="&#xe0;" horiz-adv-x="993" d="M61 256q0 57 17 103.5t58 87t104.5 68t161 43t223.5 15.5q0 68 -34 106t-89 38q-29 0 -52 -9.5t-35.5 -23t-21 -27t-11.5 -23.5l-3 -9l-277 20q24 145 128 231.5t282 86.5q169 0 279 -110.5t110 -279.5v-573h-205l-41 92q-5 -4 -13.5 -11t-36.5 -24.5t-58 -31t-76 -24.5 t-92 -11q-150 0 -234 73.5t-84 192.5zM225 1331h277l133 -266h-215zM338 287q0 -40 30.5 -66t82.5 -26q77 0 125.5 48.5t48.5 125.5v41q-113 0 -178.5 -16.5t-87 -42t-21.5 -64.5z" />
<glyph unicode="&#xe1;" horiz-adv-x="993" d="M61 256q0 57 17 103.5t58 87t104.5 68t161 43t223.5 15.5q0 68 -34 106t-89 38q-29 0 -52 -9.5t-35.5 -23t-21 -27t-11.5 -23.5l-3 -9l-277 20q24 145 128 231.5t282 86.5q169 0 279 -110.5t110 -279.5v-573h-205l-41 92q-5 -4 -13.5 -11t-36.5 -24.5t-58 -31t-76 -24.5 t-92 -11q-150 0 -234 73.5t-84 192.5zM338 287q0 -40 30.5 -66t82.5 -26q77 0 125.5 48.5t48.5 125.5v41q-113 0 -178.5 -16.5t-87 -42t-21.5 -64.5zM399 1065l133 266h277l-195 -266h-215z" />
<glyph unicode="&#xe2;" horiz-adv-x="993" d="M61 256q0 57 17 103.5t58 87t104.5 68t161 43t223.5 15.5q0 68 -34 106t-89 38q-29 0 -52 -9.5t-35.5 -23t-21 -27t-11.5 -23.5l-3 -9l-277 20q24 145 128 231.5t282 86.5q169 0 279 -110.5t110 -279.5v-573h-205l-41 92q-5 -4 -13.5 -11t-36.5 -24.5t-58 -31t-76 -24.5 t-92 -11q-150 0 -234 73.5t-84 192.5zM195 1065l204 266h246l205 -266h-236l-92 123l-92 -123h-235zM338 287q0 -40 30.5 -66t82.5 -26q77 0 125.5 48.5t48.5 125.5v41q-113 0 -178.5 -16.5t-87 -42t-21.5 -64.5z" />
<glyph unicode="&#xe3;" horiz-adv-x="993" d="M61 256q0 57 17 103.5t58 87t104.5 68t161 43t223.5 15.5q0 68 -34 106t-89 38q-29 0 -52 -9.5t-35.5 -23t-21 -27t-11.5 -23.5l-3 -9l-277 20q24 145 128 231.5t282 86.5q169 0 279 -110.5t110 -279.5v-573h-205l-41 92q-5 -4 -13.5 -11t-36.5 -24.5t-58 -31t-76 -24.5 t-92 -11q-150 0 -234 73.5t-84 192.5zM205 1065q0 125 51.5 190.5t132.5 65.5q42 0 78.5 -14.5t57.5 -31.5t45 -31.5t44 -14.5q32 0 52 24t20 68l154 -21q0 -125 -52 -190.5t-133 -65.5q-42 0 -78.5 14.5t-57.5 32t-45 32t-44 14.5q-31 0 -51.5 -24.5t-20.5 -68.5zM338 287 q0 -40 30.5 -66t82.5 -26q77 0 125.5 48.5t48.5 125.5v41q-113 0 -178.5 -16.5t-87 -42t-21.5 -64.5z" />
<glyph unicode="&#xe4;" horiz-adv-x="993" d="M61 256q0 57 17 103.5t58 87t104.5 68t161 43t223.5 15.5q0 68 -34 106t-89 38q-29 0 -52 -9.5t-35.5 -23t-21 -27t-11.5 -23.5l-3 -9l-277 20q24 145 128 231.5t282 86.5q169 0 279 -110.5t110 -279.5v-573h-205l-41 92q-5 -4 -13.5 -11t-36.5 -24.5t-58 -31t-76 -24.5 t-92 -11q-150 0 -234 73.5t-84 192.5zM190 1178q0 61 41 102t103 41t102.5 -40.5t40.5 -102.5t-41 -103t-102 -41q-62 0 -103 41t-41 103zM338 287q0 -40 30.5 -66t82.5 -26q77 0 125.5 48.5t48.5 125.5v41q-113 0 -178.5 -16.5t-87 -42t-21.5 -64.5zM569 1178q0 61 41 102 t103 41q61 0 102 -40.5t41 -102.5t-41 -103t-102 -41t-102.5 41t-41.5 103z" />
<glyph unicode="&#xe5;" horiz-adv-x="993" d="M61 256q0 57 17 103.5t58 87t104.5 68t161 43t223.5 15.5q0 68 -34 106t-89 38q-29 0 -52 -9.5t-35.5 -23t-21 -27t-11.5 -23.5l-3 -9l-277 20q24 145 128 231.5t282 86.5q169 0 279 -110.5t110 -279.5v-573h-205l-41 92q-5 -4 -13.5 -11t-36.5 -24.5t-58 -31t-76 -24.5 t-92 -11q-150 0 -234 73.5t-84 192.5zM307 1219q0 85 56.5 139.5t148.5 54.5t148.5 -54.5t56.5 -139.5t-56.5 -140t-148.5 -55t-148.5 55t-56.5 140zM338 287q0 -40 30.5 -66t82.5 -26q77 0 125.5 48.5t48.5 125.5v41q-113 0 -178.5 -16.5t-87 -42t-21.5 -64.5zM440 1219 q0 -31 20.5 -51.5t51.5 -20.5t51.5 20.5t20.5 51.5t-20.5 51t-51.5 20t-51.5 -20t-20.5 -51z" />
<glyph unicode="&#xe6;" horiz-adv-x="1607" d="M61 256q0 57 17 103.5t58 87t104.5 68t161 43t223.5 15.5q0 68 -34 106t-89 38q-29 0 -52 -9.5t-35.5 -23t-21 -27t-11.5 -23.5l-3 -9l-277 20q24 145 128 231.5t282 86.5q60 0 113 -10.5t85 -25.5t56 -30.5t34 -26.5l9 -10l11 11t33.5 25t57 31.5t80.5 24.5t105 11 q194 0 327 -139.5t133 -352.5q0 -23 -2.5 -46t-5.5 -35l-2 -11h-645q2 -6 5.5 -15.5t19 -34t35.5 -43.5t56 -34.5t79 -15.5q29 0 54 6.5t40.5 15t27 17.5t16.5 15l5 7l287 -21q-41 -125 -157.5 -210.5t-283.5 -85.5q-57 0 -109 12.5t-84.5 30.5t-57.5 36t-36 31l-10 12 q-5 -5 -14.5 -13t-43 -29t-71 -37.5t-97 -29.5t-122.5 -13q-176 0 -277.5 81t-101.5 195zM338 287q0 -40 30.5 -66t82.5 -26q77 0 125.5 48.5t48.5 125.5v41q-113 0 -178.5 -16.5t-87 -42t-21.5 -64.5zM901 563h369q-8 64 -59.5 109t-125.5 45t-125 -45t-59 -109z" />
<glyph unicode="&#xe7;" horiz-adv-x="1044" d="M61 471q0 206 141 349t341 143q77 0 144 -20.5t111.5 -53t80.5 -71.5t56.5 -78.5t34.5 -72t18 -53.5l5 -20l-276 -21q-2 5 -5.5 14.5t-17.5 32.5t-32 40.5t-50 32t-69 14.5q-87 0 -146 -65.5t-59 -170.5t59 -170t146 -65q37 0 68.5 13.5t50.5 33t32 39.5t18 34l5 13 l276 -21q-1 -7 -4 -18.5t-16 -46t-30 -66.5t-48.5 -72.5t-69.5 -71.5t-95.5 -56t-123.5 -33l-33 -66q7 -1 19 -3t42 -13.5t53 -28t42 -48t19 -71.5q0 -74 -61 -119t-185 -45q-31 0 -62 5t-46 11l-15 5v102q41 -10 82 -10q52 0 77 19.5t25 52.5q0 25 -24.5 43t-67.5 18 q-9 0 -21 -2.5t-21 -5.5l-9 -2l63 158q-180 20 -301 158t-121 329z" />
<glyph unicode="&#xe8;" horiz-adv-x="1054" d="M61 471q0 206 141 349t341 143q128 0 232.5 -60.5t166.5 -173.5t62 -258q0 -18 -3 -41t-5 -37l-3 -14h-645q16 -58 69 -100.5t126 -42.5q29 0 54 6.5t40.5 15t27 17.5t16.5 15l5 7l287 -21q-42 -127 -155 -211.5t-286 -84.5q-126 0 -234.5 64.5t-172.5 178t-64 248.5z M246 1331h276l133 -266h-215zM348 553h389q-16 65 -68.5 109.5t-125.5 44.5t-126 -44.5t-69 -109.5z" />
<glyph unicode="&#xe9;" horiz-adv-x="1054" d="M61 471q0 206 141 349t341 143q128 0 232.5 -60.5t166.5 -173.5t62 -258q0 -18 -3 -41t-5 -37l-3 -14h-645q16 -58 69 -100.5t126 -42.5q29 0 54 6.5t40.5 15t27 17.5t16.5 15l5 7l287 -21q-42 -127 -155 -211.5t-286 -84.5q-126 0 -234.5 64.5t-172.5 178t-64 248.5z M348 553h389q-16 65 -68.5 109.5t-125.5 44.5t-126 -44.5t-69 -109.5zM420 1065l133 266h276l-194 -266h-215z" />
<glyph unicode="&#xea;" horiz-adv-x="1054" d="M61 471q0 206 141 349t341 143q128 0 232.5 -60.5t166.5 -173.5t62 -258q0 -18 -3 -41t-5 -37l-3 -14h-645q16 -58 69 -100.5t126 -42.5q29 0 54 6.5t40.5 15t27 17.5t16.5 15l5 7l287 -21q-42 -127 -155 -211.5t-286 -84.5q-126 0 -234.5 64.5t-172.5 178t-64 248.5z M215 1065l205 266h246l204 -266h-235l-92 123l-92 -123h-236zM348 553h389q-16 65 -68.5 109.5t-125.5 44.5t-126 -44.5t-69 -109.5z" />
<glyph unicode="&#xeb;" horiz-adv-x="1054" d="M61 471q0 206 141 349t341 143q128 0 232.5 -60.5t166.5 -173.5t62 -258q0 -18 -3 -41t-5 -37l-3 -14h-645q16 -58 69 -100.5t126 -42.5q29 0 54 6.5t40.5 15t27 17.5t16.5 15l5 7l287 -21q-42 -127 -155 -211.5t-286 -84.5q-126 0 -234.5 64.5t-172.5 178t-64 248.5z M225 1178q0 61 41 102t103 41q61 0 102 -40.5t41 -102.5t-41 -103t-102 -41t-102.5 41t-41.5 103zM348 553h389q-16 65 -68.5 109.5t-125.5 44.5t-126 -44.5t-69 -109.5zM604 1178q0 61 41 102t103 41t102.5 -40.5t40.5 -102.5t-41 -103t-102 -41q-62 0 -103 41t-41 103z " />
<glyph unicode="&#xec;" horiz-adv-x="481" d="M-61 1321h276l133 -266h-215zM102 0v942h277v-942h-277z" />
<glyph unicode="&#xed;" horiz-adv-x="481" d="M102 0v942h277v-942h-277zM133 1055l133 266h277l-195 -266h-215z" />
<glyph unicode="&#xee;" horiz-adv-x="481" d="M-92 1065l205 266h245l205 -266h-235l-92 123l-93 -123h-235zM102 0v942h277v-942h-277z" />
<glyph unicode="&#xef;" horiz-adv-x="481" d="M-92 1178q0 62 41 102.5t102 40.5q62 0 103 -41t41 -102q0 -62 -41.5 -103t-102.5 -41t-102 41t-41 103zM102 0v942h277v-942h-277zM287 1178q0 62 40.5 102.5t102.5 40.5t102.5 -40.5t40.5 -102.5t-41 -103t-102 -41t-102 41t-41 103z" />
<glyph unicode="&#xf0;" horiz-adv-x="1157" d="M61 451q0 191 133 325.5t318 134.5q49 0 92 -9.5t70 -23t47 -27t29 -23.5l8 -9q-23 68 -64 127t-70 84l-30 25l-133 -92l-103 143l82 51q-71 42 -153 62l71 204q77 -18 149 -46t105 -47l33 -19l164 112l102 -143l-112 -82q10 -9 27.5 -27t61.5 -79t78 -130.5t61.5 -180 t27.5 -228.5q0 -256 -141.5 -409.5t-360.5 -153.5q-213 0 -352.5 133.5t-139.5 327.5zM338 451q0 -85 62 -145t153 -60t153 60t62 145t-61.5 144.5t-153.5 59.5t-153.5 -59.5t-61.5 -144.5z" />
<glyph unicode="&#xf1;" horiz-adv-x="1095" d="M102 0v942h205l41 -92q5 4 13.5 11t36.5 24.5t58.5 31t76.5 24.5t92 11q170 0 274.5 -108t104.5 -291v-553h-277v502q0 91 -48 142.5t-126 51.5t-126 -51.5t-48 -142.5v-502h-277zM236 1075q0 125 51.5 190.5t132.5 65.5q42 0 78.5 -14.5t57.5 -31.5t45 -31.5t44 -14.5 q32 0 52 24t20 68l153 -20q0 -125 -51.5 -190.5t-132.5 -65.5q-42 0 -78.5 14.5t-57.5 31.5t-45 31.5t-44 14.5q-31 0 -51.5 -24t-20.5 -68z" />
<glyph unicode="&#xf2;" d="M61 471q0 206 141 349t341 143t340.5 -143t140.5 -349t-140.5 -348.5t-340.5 -142.5t-341 142.5t-141 348.5zM256 1321h276l134 -266h-215zM338 471q0 -105 59 -170t146 -65t146 65t59 170t-59 170.5t-146 65.5t-146 -65.5t-59 -170.5z" />
<glyph unicode="&#xf3;" d="M61 471q0 206 141 349t341 143t340.5 -143t140.5 -349t-140.5 -348.5t-340.5 -142.5t-341 142.5t-141 348.5zM338 471q0 -105 59 -170t146 -65t146 65t59 170t-59 170.5t-146 65.5t-146 -65.5t-59 -170.5zM440 1055l133 266h277l-195 -266h-215z" />
<glyph unicode="&#xf4;" d="M61 471q0 206 141 349t341 143t340.5 -143t140.5 -349t-140.5 -348.5t-340.5 -142.5t-341 142.5t-141 348.5zM215 1065l205 266h246l204 -266h-235l-92 123l-92 -123h-236zM338 471q0 -105 59 -170t146 -65t146 65t59 170t-59 170.5t-146 65.5t-146 -65.5t-59 -170.5z " />
<glyph unicode="&#xf5;" d="M61 471q0 206 141 349t341 143t340.5 -143t140.5 -349t-140.5 -348.5t-340.5 -142.5t-341 142.5t-141 348.5zM225 1065q0 125 52 190.5t133 65.5q42 0 78.5 -14.5t57.5 -31.5t45 -31.5t44 -14.5q32 0 52 24t20 68l153 -21q0 -125 -51.5 -190.5t-132.5 -65.5 q-42 0 -78.5 14.5t-57.5 32t-45 32t-44 14.5q-31 0 -51.5 -24.5t-20.5 -68.5zM338 471q0 -105 59 -170t146 -65t146 65t59 170t-59 170.5t-146 65.5t-146 -65.5t-59 -170.5z" />
<glyph unicode="&#xf6;" d="M61 471q0 206 141 349t341 143t340.5 -143t140.5 -349t-140.5 -348.5t-340.5 -142.5t-341 142.5t-141 348.5zM215 1178q0 62 40.5 102.5t102.5 40.5t103 -41t41 -102q0 -62 -41 -103t-103 -41q-61 0 -102 41t-41 103zM338 471q0 -105 59 -170t146 -65t146 65t59 170 t-59 170.5t-146 65.5t-146 -65.5t-59 -170.5zM594 1178q0 62 41 102.5t102 40.5q62 0 103 -41t41 -102q0 -62 -41.5 -103t-102.5 -41t-102 41t-41 103z" />
<glyph unicode="&#xf7;" horiz-adv-x="962" d="M72 399v246h819v-246h-819zM338 174q0 62 41 102.5t102 40.5q62 0 103 -41t41 -102t-41 -102t-103 -41q-61 0 -102 40.5t-41 102.5zM338 870q0 62 41 103t102 41t102.5 -41t41.5 -103q0 -61 -41 -102t-103 -41q-61 0 -102 40.5t-41 102.5z" />
<glyph unicode="&#xf8;" horiz-adv-x="1105" d="M51 154l82 71q-7 12 -17 33t-27 85t-17 128q0 206 140.5 349t340.5 143q77 0 146 -23.5t99 -46.5l31 -23l82 72l144 -154l-82 -71q7 -13 17 -35.5t27 -87t17 -123.5q0 -206 -140.5 -348.5t-340.5 -142.5q-49 0 -95.5 9.5t-78 23t-56 27t-35.5 22.5l-12 10l-81 -72z M348 471q0 -14 2.5 -29t5.5 -24l2 -8l287 276q-31 21 -92 21q-87 0 -146 -65.5t-59 -170.5zM461 256q31 -20 92 -20q87 0 146 65t59 170q0 14 -2.5 29t-5.5 24l-2 8z" />
<glyph unicode="&#xf9;" horiz-adv-x="1095" d="M92 389v553h277v-502q0 -91 48 -142.5t126 -51.5t126 51.5t48 142.5v502h276v-942h-205l-40 92q-5 -4 -13.5 -11t-36.5 -24.5t-58.5 -31t-76.5 -24.5t-92 -11q-170 0 -274.5 108t-104.5 291zM266 1331h277l133 -266h-215z" />
<glyph unicode="&#xfa;" horiz-adv-x="1095" d="M92 389v553h277v-502q0 -91 48 -142.5t126 -51.5t126 51.5t48 142.5v502h276v-942h-205l-40 92q-5 -4 -13.5 -11t-36.5 -24.5t-58.5 -31t-76.5 -24.5t-92 -11q-170 0 -274.5 108t-104.5 291zM430 1065l133 266h277l-195 -266h-215z" />
<glyph unicode="&#xfb;" horiz-adv-x="1095" d="M92 389v553h277v-502q0 -91 48 -142.5t126 -51.5t126 51.5t48 142.5v502h276v-942h-205l-40 92q-5 -4 -13.5 -11t-36.5 -24.5t-58.5 -31t-76.5 -24.5t-92 -11q-170 0 -274.5 108t-104.5 291zM215 1065l205 266h246l204 -266h-235l-92 123l-92 -123h-236z" />
<glyph unicode="&#xfc;" horiz-adv-x="1095" d="M92 389v553h277v-502q0 -91 48 -142.5t126 -51.5t126 51.5t48 142.5v502h276v-942h-205l-40 92q-5 -4 -13.5 -11t-36.5 -24.5t-58.5 -31t-76.5 -24.5t-92 -11q-170 0 -274.5 108t-104.5 291zM225 1178q0 61 41 102t103 41q61 0 102 -40.5t41 -102.5t-41 -103t-102 -41 t-102.5 41t-41.5 103zM604 1178q0 61 41 102t103 41t102.5 -40.5t40.5 -102.5t-41 -103t-102 -41q-62 0 -103 41t-41 103z" />
<glyph unicode="&#xfd;" horiz-adv-x="1003" d="M0 942h297l205 -584l205 584h297l-379 -942q-72 -180 -156 -259t-213 -79q-18 0 -41 2.5t-37 5.5l-14 2v236q80 0 124.5 33.5t69.5 99.5zM399 1065l133 266h277l-195 -266h-215z" />
<glyph unicode="&#xfe;" horiz-adv-x="1116" d="M102 -328v1618h277v-420q4 3 11 8.5t30.5 20t49 25t65 19.5t79.5 9q117 0 218 -62t162 -173t61 -246t-61 -246t-162 -173t-218 -62q-64 0 -122.5 20.5t-85.5 41.5l-27 20v-400h-277zM369 471q0 -98 59 -161.5t145 -63.5t145.5 63.5t59.5 161.5t-59.5 161.5t-145.5 63.5 t-145 -63.5t-59 -161.5z" />
<glyph unicode="&#xff;" horiz-adv-x="1003" d="M0 942h297l205 -584l205 584h297l-379 -942q-72 -180 -156 -259t-213 -79q-18 0 -41 2.5t-37 5.5l-14 2v236q80 0 124.5 33.5t69.5 99.5zM184 1178q0 61 41 102t103 41t102.5 -40.5t40.5 -102.5t-41 -103t-102 -41q-62 0 -103 41t-41 103zM563 1178q0 61 41 102t103 41 q61 0 102 -40.5t41 -102.5t-41 -103t-102 -41t-102.5 41t-41.5 103z" />
<glyph unicode="&#x152;" horiz-adv-x="1751" d="M61 645q0 132 51 251.5t137.5 205.5t206 137t251.5 51h942v-286h-553v-205h501v-287h-501v-225h573v-287h-962q-132 0 -251.5 51t-206 137t-137.5 205.5t-51 251.5zM358 645q0 -153 101 -255.5t248 -102.5h92v717h-92q-147 0 -248 -103t-101 -256z" />
<glyph unicode="&#x153;" horiz-adv-x="1699" d="M61 471q0 213 133.5 352.5t327.5 139.5q66 0 126 -16t99 -38.5t68 -45t42 -38.5l13 -16q5 6 13.5 16.5t39 37t65 47t89 37t111.5 16.5q194 0 327.5 -139.5t133.5 -352.5q0 -23 -2.5 -46t-5.5 -35l-3 -11h-645q2 -6 5.5 -15.5t19 -34t35.5 -43.5t56 -34.5t79 -15.5 q29 0 54 6.5t40.5 15t27 17.5t16.5 15l5 7l287 -21q-42 -126 -153 -211t-277 -85q-60 0 -115 16t-90.5 38t-62 44.5t-38.5 38.5l-12 16q-5 -6 -14.5 -16.5t-43 -37t-71 -46.5t-97 -36.5t-122.5 -16.5q-194 0 -327.5 139t-133.5 352zM328 471q0 -104 57.5 -169.5t136.5 -65.5 t137 65.5t58 169.5t-58 170t-137 66t-136.5 -66t-57.5 -170zM993 563h369q-8 64 -59 109t-125 45t-125.5 -45t-59.5 -109z" />
<glyph unicode="&#x178;" horiz-adv-x="1157" d="M0 1290h317l263 -512l260 512h317l-430 -809v-481h-297v481zM246 1546q0 62 41 103t102 41t102 -41t41 -103t-41 -102.5t-102 -40.5t-102 40.5t-41 102.5zM625 1546q0 62 41 103t102 41t102 -41t41 -103t-40.5 -102.5t-102.5 -40.5t-102.5 40.5t-40.5 102.5z" />
<glyph unicode="&#x2c6;" horiz-adv-x="778" d="M61 1034l205 266h246l205 -266h-236l-92 123l-92 -123h-236z" />
<glyph unicode="&#x2dc;" horiz-adv-x="757" d="M61 1055q0 125 52 190.5t133 65.5q42 0 78.5 -14.5t57.5 -31.5t45 -31.5t44 -14.5q32 0 52 24t20 68l153 -21q0 -125 -51.5 -190.5t-132.5 -65.5q-42 0 -78.5 14.5t-57.5 31.5t-45 31.5t-44 14.5q-31 0 -51.5 -24t-20.5 -68z" />
<glyph unicode="&#x2000;" horiz-adv-x="882" />
<glyph unicode="&#x2001;" horiz-adv-x="1765" />
<glyph unicode="&#x2002;" horiz-adv-x="882" />
<glyph unicode="&#x2003;" horiz-adv-x="1765" />
<glyph unicode="&#x2004;" horiz-adv-x="588" />
<glyph unicode="&#x2005;" horiz-adv-x="441" />
<glyph unicode="&#x2006;" horiz-adv-x="294" />
<glyph unicode="&#x2007;" horiz-adv-x="294" />
<glyph unicode="&#x2008;" horiz-adv-x="220" />
<glyph unicode="&#x2009;" horiz-adv-x="353" />
<glyph unicode="&#x200a;" horiz-adv-x="98" />
<glyph unicode="&#x2010;" horiz-adv-x="768" d="M72 399v246h624v-246h-624z" />
<glyph unicode="&#x2011;" horiz-adv-x="768" d="M72 399v246h624v-246h-624z" />
<glyph unicode="&#x2012;" horiz-adv-x="768" d="M72 399v246h624v-246h-624z" />
<glyph unicode="&#x2013;" horiz-adv-x="1013" d="M72 399v246h870v-246h-870z" />
<glyph unicode="&#x2014;" horiz-adv-x="1515" d="M72 399v246h1372v-246h-1372z" />
<glyph unicode="&#x2018;" horiz-adv-x="430" d="M61 993q0 72 21 135t51.5 102.5t60.5 68.5t51 41l21 12l51 -72q-9 -6 -23.5 -17t-42 -48t-36.5 -78q61 0 107.5 -46.5t46.5 -107.5t-46.5 -107.5t-107.5 -46.5q-62 0 -108 48t-46 116z" />
<glyph unicode="&#x2019;" horiz-adv-x="430" d="M61 1198q0 62 46.5 108t107.5 46q62 0 108 -48t46 -116q0 -72 -21 -135t-51.5 -102.5t-60.5 -68.5t-51 -41l-21 -12l-51 72q9 6 23.5 17t42 48t36.5 78q-61 0 -107.5 46t-46.5 108z" />
<glyph unicode="&#x201a;" horiz-adv-x="430" d="M61 143q0 61 46.5 107.5t107.5 46.5q62 0 108 -48t46 -116q0 -52 -11.5 -100t-29.5 -83t-39.5 -65t-43.5 -50t-40 -34t-29 -20l-12 -6l-51 71l9 6t21 18t27.5 29.5t25.5 40t19 50.5q-62 0 -108 46t-46 107z" />
<glyph unicode="&#x201c;" horiz-adv-x="808" d="M61 993q0 72 21 135t51.5 102.5t60.5 68.5t51 41l21 12l51 -72q-9 -6 -23.5 -17t-42 -48t-36.5 -78q61 0 107.5 -46.5t46.5 -107.5t-46.5 -107.5t-107.5 -46.5q-62 0 -108 48t-46 116zM440 993q0 72 21 135t51 102.5t60.5 68.5t51.5 41l21 12l51 -72q-9 -6 -23.5 -17 t-42 -48t-36.5 -78q62 0 108 -46.5t46 -107.5t-46 -107.5t-108 -46.5t-108 48t-46 116z" />
<glyph unicode="&#x201d;" horiz-adv-x="808" d="M61 1198q0 62 46.5 108t107.5 46q62 0 108 -48t46 -116q0 -72 -21 -135t-51.5 -102.5t-60.5 -68.5t-51 -41l-21 -12l-51 72q9 6 23.5 17t42 48t36.5 78q-61 0 -107.5 46t-46.5 108zM440 1198q0 62 46 108t108 46t108 -48t46 -116q0 -72 -21 -135t-51 -102.5t-60.5 -68.5 t-51.5 -41l-21 -12l-51 72q9 6 23.5 17t42 48t36.5 78q-62 0 -108 46t-46 108z" />
<glyph unicode="&#x201e;" horiz-adv-x="808" d="M61 143q0 61 46.5 107.5t107.5 46.5q62 0 108 -48t46 -116q0 -52 -11.5 -100t-29.5 -83t-39.5 -65t-43.5 -50t-40 -34t-29 -20l-12 -6l-51 71l9 6t21 18t27.5 29.5t25.5 40t19 50.5q-62 0 -108 46t-46 107zM440 143q0 61 46 107.5t108 46.5t108 -48t46 -116 q0 -72 -21 -135t-51 -102t-60.5 -68t-51.5 -41l-21 -12l-51 71l9 6t21 18t27.5 29.5t25.5 40t19 50.5q-62 0 -108 46t-46 107z" />
<glyph unicode="&#x2022;" horiz-adv-x="778" d="M174 553q0 92 61.5 153.5t153.5 61.5t153.5 -61.5t61.5 -153.5t-61.5 -153.5t-153.5 -61.5t-153.5 61.5t-61.5 153.5z" />
<glyph unicode="&#x2026;" horiz-adv-x="1249" d="M61 143q0 61 46.5 107.5t107.5 46.5t107.5 -46.5t46.5 -107.5t-46 -107t-108 -46t-108 46t-46 107zM471 143q0 61 46.5 107.5t107.5 46.5t107 -46t46 -108q0 -61 -46 -107t-107 -46q-62 0 -108 46t-46 107zM881 143q0 62 46 108t107 46q62 0 108 -46.5t46 -107.5 t-46 -107t-108 -46t-107.5 46t-45.5 107z" />
<glyph unicode="&#x202f;" horiz-adv-x="353" />
<glyph unicode="&#x2039;" horiz-adv-x="624" d="M61 461l226 327h276l-225 -327l225 -328h-276z" />
<glyph unicode="&#x203a;" horiz-adv-x="624" d="M61 133l226 328l-226 327h277l225 -327l-225 -328h-277z" />
<glyph unicode="&#x205f;" horiz-adv-x="441" />
<glyph unicode="&#x20ac;" horiz-adv-x="1433" d="M41 420v164h123v102h-123v164h154q3 9 8 25.5t27 63t50 89t77 94.5t107 89.5t143 63t181 25.5q228 0 377.5 -123.5t206.5 -326.5l-297 -21q-25 91 -97.5 148t-189.5 57q-55 0 -103.5 -19t-78.5 -46t-52.5 -54t-31.5 -46l-10 -19h307v-164h-348v-102h348v-164h-307 q3 -7 10 -18t31.5 -39t53.5 -50t77.5 -39.5t103.5 -17.5q117 0 189.5 57t97.5 148l297 -21q-57 -203 -206.5 -326.5t-377.5 -123.5q-96 0 -180.5 23.5t-143 61.5t-107 84t-77.5 92t-49 84t-28 61l-8 24h-154z" />
<glyph unicode="&#x2122;" horiz-adv-x="1218" d="M20 1126v164h461v-164h-143v-368h-174v368h-144zM543 758v532h153l144 -215l143 215h154v-532h-174v276l-93 -133h-61l-92 133v-276h-174z" />
<glyph unicode="&#x25fc;" horiz-adv-x="942" d="M0 0v942h942v-942h-942z" />
</font>
</defs>
</svg>
